<svg height="512" viewBox="0 0 64 64" width="512" xmlns="http://www.w3.org/2000/svg"><g id="World-Store-World-Marketing-Commerce"><path d="m27 3c-.34 0-.67.01-1 .02v5.98l4 4h5l5 5v6l-2 2v4l1 1 3 3v5l3.4 3.4a24.12 24.12 0 0 0 5.26-11.4 22.974 22.974 0 0 0 .34-4 24.006 24.006 0 0 0 -24-24z" fill="#00ccb3"/><path d="m45.4 42.4c-.15.19-.3.36-.47.54a23.389 23.389 0 0 1 -4.59 4 23.682 23.682 0 0 1 -9.34 3.72c-.33.06-.66.11-1 .15v-.81l3-3v-4l2-2v-4l-5-5h-8l-4 4v3l2 2h4v4l2 2v3.98a23.919 23.919 0 0 1 -16.46-7.52l2.46-2.46v-3l3-3v-3l-5-5v-3h3l4-4v-4l4-4v-4l-3-3h-.58a23.884 23.884 0 0 1 8.58-1.98v5.98l4 4h5l5 5v6l-2 2v4l4 4v5z" fill="#5aaae7"/><path d="m31.55 33.55-1.55-1.55h-8l-1 1-3 3v3l2 2h4v4l2 2v3.98c.33.01.66.02 1 .02a22.8 22.8 0 0 0 3-.19v-.81l1-1 2-2v-4l2-2v-4z" fill="#00ccb3"/><path d="m57 31h-6.34-11.66-6l-1.45 2.55-2.55 4.45h6 7 6.32 12.68z" fill="#ed1c24"/><path d="m33 21v3l-2 2h-2v-4l-2-2v-2h6z" fill="#00ccb3"/><path d="m59 43v17a1 1 0 0 1 -1 1h-26a1 1 0 0 1 -1-1v-17z" fill="#ffa733"/><path d="m21 8v4l-4 4v4l-4 4h-3v3l5 5v3l-3 3v3l-2.46 2.46a23.989 23.989 0 0 1 7.88-38.46h.58z" fill="#00ccb3"/><path d="m59 43v6a4 4 0 0 1 -4-4 4 4 0 0 1 -8 0 3.995 3.995 0 0 1 -4 4 3.522 3.522 0 0 1 -.66-.06 3.99 3.99 0 0 1 -3.34-3.94 3.994 3.994 0 0 1 -6 3.46 3.98 3.98 0 0 1 -2-3.46v-2z" fill="#ff9811"/><path d="m45 51h10v6h-10z" fill="#e6e7e8"/><path d="m35 51h6v10h-6z" fill="#e6e7e8"/><path d="m48.32 38h-19.32v5a4.01 4.01 0 0 0 4 4 3.995 3.995 0 0 0 4-4 3.99 3.99 0 0 0 3.34 3.94 3.522 3.522 0 0 0 .66.06 3.995 3.995 0 0 0 4-4 4 4 0 1 0 8 0 3.994 3.994 0 0 0 6 3.46 4.225 4.225 0 0 0 .83-.63 4.025 4.025 0 0 0 1.17-2.83v-5z" fill="#ff5023"/><g fill="#00b39d"><path d="m55 26h2v2h-2z"/><path d="m54.559 20.965h2v1.999h-2z" transform="matrix(.985 -.173 .173 .985 -2.961 9.94)"/><path d="m53.251 16.082h2v2h-2z" transform="matrix(.939 -.343 .343 .939 -2.569 19.63)"/><path d="m51.115 11.5h1.999v2h-1.999z" transform="matrix(.866 -.5 .5 .866 .731 27.727)"/><path d="m48.215 7.359h2v2.001h-2z" transform="matrix(.766 -.642 .642 .766 6.128 33.568)"/><path d="m44.641 3.784h2v2.001h-2z" transform="matrix(.642 -.766 .766 .642 12.655 36.689)"/><path d="m7.359 3.785h2.001v2h-2.001z" transform="matrix(.766 -.643 .643 .766 -1.12 6.491)"/><path d="m3.784 7.359h2.001v2h-2.001z" transform="matrix(.643 -.766 .766 .643 -4.695 6.653)"/><path d="m3.785 44.64h2v2.001h-2z" transform="matrix(.766 -.642 .642 .766 -28.201 13.736)"/><path d="m7.359 48.215h2v2.001h-2z" transform="matrix(.642 -.766 .766 .642 -34.728 24.006)"/><path d="m11.5 51.115h1.999v2h-1.999z" transform="matrix(.5 -.866 .866 .5 -38.884 36.887)"/><path d="m16.082 53.251h2v2h-2z" transform="matrix(.343 -.939 .939 .343 -39.738 51.703)"/><path d="m20.965 54.559h2v1.999h-2z" transform="matrix(.173 -.985 .985 .173 -36.562 67.555)"/><path d="m26 55h2v2h-2z"/></g></g></svg>